# xmcd CD database file
#
# Track frame offsets:
#	150
#	37957
#	59980
#	88107
#	111795
#	136400
#	164295
#	190062
#	219034
#	244842
#	269667
#	292670
#
# Disc length: 4273 seconds
#
# Revision: 0
# Processed by: cddbd v1.5.2PL0 Copyright (c) Steve Scherf et al.
# Submitted via: CDex 1.51
#
DISCID=ad10af0c
DTITLE=George Benson - Live( The Early Years)
DYEAR=1999
DGENRE=Jazz
TTITLE0=Love For Sale
TTITLE1=(I'm Afraid) the Masquerade is over
TTITLE2=There Will Never Be Another You
TTITLE3=All Blues
TTITLE4=Witchcraft
TTITLE5=Blue Bossa
TTITLE6=Oleo
TTITLE7=Til Darlin'
TTITLE8=All The Things You Are
TTITLE9=Invitation
TTITLE10=Love Walked
TTITLE11=Dahlin's Delight
EXTD=YEAR: 1999
EXTT0=
EXTT1=
EXTT2=
EXTT3=
EXTT4=
EXTT5=
EXTT6=
EXTT7=
EXTT8=
EXTT9=
EXTT10=
EXTT11=
PLAYORDER=
